<svg width="1600" height="800" viewBox="0 0 1600 800" fill="none" xmlns="http://www.w3.org/2000/svg">
<path d="M1600 0H0V800H1600V0Z" fill="#0A1128"/>
<path d="M1102.5 734.8C1105 733.6 1127.3 726.2 1128.1 727.3C1128.6 728 1124.2 751.1 1123.5 751.8C1123.3 752.1 1107.5 739.5 1102.5 734.8ZM1226.3 229.1C1226.3 229 1221.4 219.7 1219.3 214.9C1219.2 214.6 1219 213.8 1218.9 213.3C1218.8 212.9 1218.6 212.6 1218.3 212.4C1218 212.2 1217.7 212.3 1217.5 212.5L1204.4 224.8C1204.2 225 1204.1 225.3 1204 225.6C1204 225.9 1204 226.3 1204.2 226.6C1204.3 226.7 1205.6 229.1 1206.3 230.2C1208.7 233.9 1212.8 242.3 1212.8 242.4C1213 242.7 1213.2 242.9 1213.5 243C1213.8 243 1214 242.9 1214.2 242.7C1214.2 242.7 1216 240.2 1216.9 239.1C1218.4 237.5 1219.9 235.9 1221.5 234.4C1222.7 233.2 1223.1 233 1223.6 232.8C1224.1 232.5 1224.7 232.3 1226.1 230.9C1226.5 230.4 1226.6 229.6 1226.3 229.1ZM33 770.3C33 769.6 32.5 769.1 31.8 769.1C31.7 769.1 31.5 769.1 31.4 769.2C29.8 769.4 17.1 769.3 9.19999 769.2C8.89999 769.2 8.59999 769.3 8.29999 769.6C8.09999 769.8 7.89999 770.1 7.89999 770.5C7.89999 770.7 7.89999 775.4 7.99999 776.4L8.39999 790C8.39999 790.3 8.59999 790.6 8.79999 790.9C8.99999 791.1 9.29999 791.2 9.59999 791.2H9.69999C17 790.5 24.4 790.3 31.7 790.6C32 790.6 32.4 790.5 32.6 790.3C32.8 790.1 33 789.7 33 789.4C32.9 783.3 32.9 776.2 33 770.3Z" fill="#787838"/>
<path d="M171.1 383.4C172.4 380.9 185.4 361.4 186.7 361.8C187.5 362.1 198.2 383 198.2 383.9C198.1 384.2 177.9 384 171.1 383.4ZM596.4 711.8C596.3 711.7 589.7 703.6 586.7 699.3C586.5 699 586.2 698.3 586 697.8C585.8 697.4 585.6 697.1 585.3 697C585 696.9 584.7 697 584.5 697.3L574 712C573.8 712.2 573.8 712.5 573.8 712.9C573.8 713.2 574 713.6 574.2 713.8C574.3 713.9 576 716 577 716.9C580.1 720 585.8 727.4 585.9 727.5C586.1 727.8 586.4 727.9 586.7 727.9C587 727.9 587.2 727.7 587.3 727.4C587.3 727.4 588.5 724.6 589.3 723.3C590.4 721.4 591.6 719.6 592.8 717.8C593.7 716.4 594.1 716.1 594.5 715.8C595 715.4 595.5 715.1 596.6 713.4C596.9 713.1 596.8 712.3 596.4 711.8ZM727.5 179.9C728.1 180.1 728.8 179.7 728.9 179.1C728.9 179 728.9 178.9 728.9 178.7C729.1 177.3 731.7 166.1 733.4 159.2C733.5 158.9 733.4 158.6 733.2 158.4C733 158.1 732.7 158 732.4 157.9C732.2 157.9 727.7 156.8 726.7 156.6L713.3 153.9C713 153.8 712.6 153.9 712.4 154.1C712.2 154.3 712 154.5 711.9 154.7V154.8C711.1 161.3 709.7 167.9 708 174.2C707.9 174.5 708 174.8 708.2 175.1C708.4 175.4 708.7 175.5 709 175.6C714.8 176.9 721.7 178.5 727.5 179.9ZM728.5 178.1C728.4 178 728.3 177.9 728.1 177.9C728.3 177.9 728.4 178 728.5 178.1Z" fill="#855325"/>
<path d="M699.6 472.7C698.1 472.7 696.8 471.9 696.1 470.4C695.3 468.5 696.1 466.2 698 465.4C701.7 463.8 704.8 460.7 706.4 456.9C708 453.1 708.1 448.8 706.6 445C706.3 444.1 705.8 443.2 705.4 442.2C704.6 440.5 703.6 438.5 703.1 436.3C702.2 432.2 702.9 427.7 705.1 423.5C706.8 420.4 709.2 417.4 712.7 414.4C714.3 413 716.7 413.2 718 414.8C719.4 416.4 719.2 418.8 717.6 420.1C714.8 422.6 712.9 424.8 711.7 427.1C710.3 429.7 709.8 432.4 710.4 434.7C710.7 436.1 711.4 437.5 712.1 439C712.6 440.1 713.1 441.2 713.6 442.3C715.7 447.9 715.6 454.3 713.3 459.9C711 465.4 706.5 470 701 472.4C700.6 472.6 700.1 472.7 699.6 472.7ZM740.4 421.4C741.9 421.2 743.4 421.9 744.2 423.3C745.3 425.1 744.6 427.5 742.8 428.6C739.1 430.7 736.4 434.2 735.2 438.1C734 442.1 734.4 446.5 736.3 450.2C736.7 451.1 737.3 451.9 737.9 452.9C738.9 454.6 740.1 456.4 740.9 458.6C742.3 462.6 742.1 467.3 740.3 471.8C738.9 475.2 736.8 478.4 733.5 481.9C732 483.5 729.6 483.6 728 482.1C726.4 480.7 726.3 478.2 727.8 476.7C730.4 473.9 732.1 471.4 733.1 469C734.2 466.2 734.4 463.4 733.6 461.1C733.1 459.8 732.3 458.4 731.4 457C730.8 456 730.1 454.9 729.5 453.8C726.7 448.4 726.1 441.9 727.8 436C729.6 430.1 733.6 425 739 422C739.4 421.6 739.9 421.4 740.4 421.4ZM261.3 590.9C267 597.7 270.3 606.6 270.7 613.3C271.2 620.6 268.3 629.7 260.5 633.7C257.5 635.2 253.8 635.9 249.3 635.9C241.4 635.8 236.4 633 233.9 627.5C231.8 622.8 231.6 616.1 235.7 611.6C238.9 608.1 243.5 607.5 246.9 610C248.1 610.9 248.4 612.7 247.5 613.9C246.6 615.1 244.8 615.4 243.6 614.5C241.8 613.2 240 615.1 239.8 615.3C237.4 617.9 237.7 622.3 239 625.2C240.5 628.6 243.7 630.2 249.4 630.3C253 630.3 255.8 629.8 258 628.7C262.7 626.3 265.7 620.1 265.2 613.7C264.7 606.4 259.9 595.5 252.2 589.8C248 586.7 243.7 585.7 239.3 586.7C236.2 587.4 233.1 589.1 229.6 591.7C223 596.8 217.9 603.5 215.4 610.7C212.7 618.4 213.3 626.5 217.3 634.6C218 636 217.4 637.7 216 638.3C214.6 639 212.9 638.4 212.3 637C207.7 627.6 206.9 617.8 210.1 608.8C213 600.6 218.7 592.9 226.2 587.2C230.3 584.1 234.2 582.1 238 581.2C244 579.8 250 581.2 255.5 585.2C257.6 586.9 259.6 588.8 261.3 590.9Z" fill="#725B7C" fill-opacity="0.57"/>
<path d="M1013.7 161C1017.62 161 1020.8 157.821 1020.8 153.9C1020.8 149.979 1017.62 146.8 1013.7 146.8C1009.78 146.8 1006.6 149.979 1006.6 153.9C1006.6 157.821 1009.78 161 1013.7 161Z" fill="#725B7C" fill-opacity="0.57"/>
<path d="M1024.3 139.2C1028.22 139.2 1031.4 136.021 1031.4 132.1C1031.4 128.179 1028.22 125 1024.3 125C1020.38 125 1017.2 128.179 1017.2 132.1C1017.2 136.021 1020.38 139.2 1024.3 139.2Z" fill="#725B7C" fill-opacity="0.57"/>
<path d="M1037.3 156C1041.22 156 1044.4 152.821 1044.4 148.9C1044.4 144.979 1041.22 141.8 1037.3 141.8C1033.38 141.8 1030.2 144.979 1030.2 148.9C1030.2 152.821 1033.38 156 1037.3 156Z" fill="#725B7C" fill-opacity="0.57"/>
<path d="M1508.7 297.2C1503.9 291.8 1499 286.4 1493.9 281C1499.5 275.4 1505 269.5 1509.5 262.8C1510.7 261.1 1510.2 258.7 1508.5 257.6C1506.8 256.4 1504.4 256.9 1503.3 258.6C1499.1 264.8 1494.2 270.2 1488.8 275.5C1484 270.5 1479.1 265.5 1474.1 260.6C1472.6 259.1 1470.2 259.1 1468.8 260.6C1467.3 262.1 1467.3 264.5 1468.8 265.9C1473.7 270.7 1478.5 275.7 1483.3 280.7C1482.2 281.8 1481 282.9 1479.8 283.9C1475.7 287.7 1471.4 291.7 1467.4 295.9C1466 297.4 1466 299.7 1467.4 301.2C1468.9 302.6 1471.3 302.6 1472.7 301.1C1476.6 297.1 1480.8 293.2 1484.8 289.4C1486 288.3 1487.1 287.2 1488.3 286.1C1493.2 291.4 1498.1 296.7 1502.9 302C1503 302.1 1503 302.1 1503.1 302.2C1504.5 303.6 1506.8 303.7 1508.3 302.4C1510 301.2 1510.1 298.8 1508.7 297.2ZM327.6 248.6L327.2 246C325.7 234.9 325 222.8 324.9 209C324.9 203.5 324.9 197.5 325.1 190.5C325.1 189.8 325.1 189 325.1 188.2C325.1 183.2 325.1 177 329 174.7C331.2 173.4 334.1 173.7 337.5 175.6C343.2 178.7 350.7 184.3 355 190.5C360.5 198.3 362.3 207.4 360 216.2C356.8 228.5 345 247.2 330 248.3L327.6 248.6ZM332.1 179.2C331.9 179.2 331.8 179.2 331.7 179.3C331.6 179.4 331 179.8 330.6 182C330.3 183.9 330.3 186.2 330.3 188.3C330.3 189.1 330.3 190 330.3 190.7C330.1 197.6 330.1 203.5 330.1 209C330.2 221.5 330.8 232.5 332.1 242.7C343.1 240 352.5 224.6 355.1 214.9C357 207.7 355.5 200.1 350.9 193.6C347 188.1 340 183 335 180.3C333.6 179.5 332.6 179.2 332.1 179.2ZM516.3 60.8001C516.2 60.8001 516.1 60.8001 515.9 60.7001C513.5 60.0001 511.9 59.8001 509.2 60.0001C508.5 60.0001 507.9 59.5001 507.8 58.8001C507.8 58.1001 508.3 57.5001 509 57.4001C512.1 57.2001 513.9 57.4001 516.6 58.2001C517.3 58.4001 517.7 59.1001 517.5 59.8001C517.3 60.4001 516.8 60.8001 516.3 60.8001ZM506.1 70.5001C505.6 70.5001 505.1 70.2001 504.9 69.7001C504.1 67.6001 503.7 65.4001 503.6 63.1001C503.6 62.4001 504.1 61.8001 504.8 61.8001C505.5 61.8001 506.1 62.3001 506.1 63.0001C506.2 65.0001 506.6 66.9001 507.2 68.8001C507.4 69.5001 507.1 70.2001 506.4 70.4001C506.4 70.5001 506.2 70.5001 506.1 70.5001ZM494.1 64.4001C493.7 64.4001 493.3 64.2001 493.1 63.9001C492.7 63.3001 492.8 62.5001 493.3 62.1001C495.1 60.7001 497 59.5001 499.1 58.5001C499.7 58.2001 500.5 58.5001 500.8 59.1001C501.1 59.7001 500.8 60.5001 500.2 60.8001C498.3 61.7001 496.5 62.8001 494.9 64.1001C494.7 64.3001 494.4 64.4001 494.1 64.4001ZM500.5 55.3001C500 55.3001 499.6 55.0001 499.3 54.6001C498.8 53.6001 498.1 52.7001 496.9 51.2001C496.6 50.8001 496.2 50.3001 495.8 49.8001C495.4 49.2001 495.5 48.4001 496 48.0001C496.6 47.6001 497.4 47.7001 497.8 48.2001C498.2 48.7001 498.6 49.2001 498.9 49.6001C500.2 51.2001 501 52.2001 501.6 53.5001C501.9 54.1001 501.6 54.9001 501 55.2001C500.9 55.3001 500.7 55.3001 500.5 55.3001ZM506.7 55.0001C506.4 55.0001 506.2 54.9001 505.9 54.8001C505.3 54.4001 505.2 53.6001 505.6 53.0001C506.8 51.3001 507.9 49.6001 508.9 47.8001C509.2 47.2001 510 46.9001 510.6 47.3001C511.2 47.6001 511.5 48.4001 511.1 49.0001C510.1 50.9001 508.9 52.8001 507.6 54.6001C507.4 54.8001 507.1 55.0001 506.7 55.0001ZM1029.3 382.8C1029.2 382.8 1029.1 382.8 1028.9 382.7C1026.5 382 1024.9 381.8 1022.2 382C1021.5 382 1020.9 381.5 1020.8 380.8C1020.8 380.1 1021.3 379.5 1022 379.4C1025.1 379.2 1026.9 379.4 1029.6 380.2C1030.3 380.4 1030.7 381.1 1030.5 381.8C1030.3 382.4 1029.8 382.8 1029.3 382.8ZM1019.1 392.5C1018.6 392.5 1018.1 392.2 1017.9 391.7C1017.1 389.6 1016.7 387.4 1016.6 385.1C1016.6 384.4 1017.1 383.8 1017.8 383.8C1018.5 383.8 1019.1 384.3 1019.1 385C1019.2 387 1019.6 388.9 1020.2 390.8C1020.4 391.5 1020.1 392.2 1019.4 392.4C1019.4 392.5 1019.2 392.5 1019.1 392.5ZM1007.1 386.4C1006.7 386.4 1006.3 386.2 1006.1 385.9C1005.7 385.3 1005.8 384.5 1006.3 384.1C1008.1 382.7 1010 381.5 1012.1 380.5C1012.7 380.2 1013.5 380.5 1013.8 381.1C1014.1 381.7 1013.8 382.5 1013.2 382.8C1011.3 383.7 1009.5 384.8 1007.9 386.1C1007.7 386.3 1007.4 386.4 1007.1 386.4ZM1013.5 377.3C1013 377.3 1012.6 377 1012.3 376.6C1011.8 375.6 1011.1 374.7 1009.9 373.2C1009.6 372.8 1009.2 372.3 1008.8 371.8C1008.4 371.2 1008.5 370.4 1009 370C1009.6 369.6 1010.4 369.7 1010.8 370.2C1011.2 370.7 1011.6 371.2 1011.9 371.6C1013.2 373.2 1014 374.2 1014.6 375.5C1014.9 376.1 1014.6 376.9 1014 377.2C1013.9 377.3 1013.7 377.3 1013.5 377.3ZM1019.7 377C1019.4 377 1019.2 376.9 1018.9 376.8C1018.3 376.4 1018.2 375.6 1018.6 375C1019.8 373.3 1020.9 371.6 1021.9 369.8C1022.2 369.2 1023 368.9 1023.6 369.3C1024.2 369.6 1024.5 370.4 1024.1 371C1023.1 372.9 1021.9 374.8 1020.6 376.6C1020.4 376.8 1020.1 377 1019.7 377ZM1329.7 573.4C1328.3 573.4 1326.8 573.2 1325.2 572.7C1316.8 570 1308.6 560 1306.5 552.7C1306.1 551.3 1305.8 549.8 1305.6 548.3C1297.5 551.6 1290.1 558.9 1290.2 569.3C1290.2 570.8 1289 572 1287.5 572.1C1286 572.1 1284.8 570.9 1284.8 569.4C1284.7 562.7 1287.2 556.5 1291.8 551.4C1295.4 547.4 1300.2 544.3 1305.5 542.6C1306 536.1 1308.6 529.7 1312.9 525.2C1319.9 517.8 1331.1 516.3 1340.2 515.1L1340.9 515C1342.4 514.8 1343.8 515.9 1344 517.3C1344.2 518.8 1343.1 520.2 1341.7 520.4L1341 520.5C1332.4 521.7 1322.6 523 1317 528.9C1314 532.1 1312 536.6 1311.3 541.3C1319.2 540.3 1329 542.6 1335.6 547C1339.9 549.9 1342.7 554.8 1342.8 559.7C1343 564 1341.1 568 1337.6 570.8C1335.2 572.4 1332.6 573.4 1329.7 573.4ZM1311 546.7C1311.1 548.2 1311.4 549.7 1311.8 551.1C1313.5 556.9 1320.5 565.3 1326.9 567.4C1329.7 568.3 1332 567.9 1334.1 566.3C1336.8 564.2 1337.3 561.5 1337.2 559.7C1337.1 556.5 1335.2 553.3 1332.4 551.4C1326.7 547.5 1317.7 545.6 1311 546.7Z" fill="#725B7C" fill-opacity="0.57"/>
</svg>
